#!OML:ASF H:\Terrain\Patient Classification 1\PLAYGROUND\JustinFriday\JustinFriday.ASF
:FULLY-SPECIFIED
:DEGREES
2858
root -15.9567 18.4976 10.1511 414.115 -81.2339 -112.02
lowerback 16.2665 -1.69857 -0.294457
upperback -4.72149 -1.7588 5.58794
thorax -14.3548 -0.496734 7.03414
lowerneck 19.6595 4.01615 -7.25188
upperneck 29.8173 0.409616 7.62442
head 6.13853 -1.40118 3.682
rclavicle -1.78906e-014 1.31198e-014
rhumerus 57.0671 -0.87788 -62.7077
rradius 82.9998
rwrist 11.2026
rhand 1.48133 -22.9539
rfingers 7.12502
rthumb 27.0085 -411.043
lclavicle -1.78906e-014 1.31198e-014
lhumerus 49.4197 9.60882 61.3723
lradius 80.8114
lwrist -8.94889
lhand 6.87445 -2.22173
lfingers 7.12502
lthumb 32.1562 24.9528
rfemur -6.06546 -2.67103 22.0304
rtibia 72.2085
rfoot 0.0861866 -3.79401
rtoes 1.1262
lfemur 0.599958 9.69242 -8.15134
ltibia 75.3125
lfoot 2.93034 -5.04265
ltoes 0.906428
2859
root -15.9985 18.5349 10.1403 411.497 -81.4653 -109.835
lowerback 16.651 -1.65562 -0.891771
upperback -4.68589 -1.81309 5.68522
thorax -14.523 -0.453145 7.5359
lowerneck 19.2457 4.20778 -8.01199
upperneck 30.0746 0.539549 7.92576
head 6.26082 -1.39543 3.92109
rclavicle 1.47101e-014 1.82882e-014
rhumerus 57.0863 -0.695595 -62.1319
rradius 83.1859
rwrist 11.0111
rhand 1.48347 -23.2783
rfingers 7.12502
rthumb 27.0105 -411.367
lclavicle 1.47101e-014 1.82882e-014
lhumerus 49.7991 9.37334 62.0849
lradius 80.3714
lwrist -9.65353
lhand 6.56917 -1.93011
lfingers 7.12502
lthumb 31.8655 25.3027
rfemur -5.97679 -3.52864 20.8973
rtibia 72.471
rfoot 0.429267 -2.87104
rtoes 5.16495
lfemur 0.882594 9.72988 -8.41968
ltibia 75.2339
lfoot 2.9367 -4.82807
ltoes -0.803624
2860
root -16.0434 18.5867 10.128 411.395 -80.7813 -110.004
lowerback 16.4895 -1.82509 -0.467414
upperback -4.4762 -1.94539 5.91567
thorax -14.1646 -0.563988 7.56488
lowerneck 18.3246 3.95113 -7.88029
upperneck 30.6343 0.288153 7.77162
head 6.60252 -1.49742 3.86078
rclavicle -7.15625e-015 -3.02153e-014
rhumerus 57.2204 -0.804865 -61.3786
rradius 83.6802
rwrist 10.5304
rhand 1.4165 -23.6093
rfingers 7.12502
rthumb 26.9464 -411.708
lclavicle -7.15625e-015 -3.02153e-014
lhumerus 50.6012 9.2258 62.5869
lradius 79.7409
lwrist -10.3288
lhand 6.12564 -1.77836
lfingers 7.12502
lthumb 31.443 25.5377
rfemur -5.82629 -3.79915 21.4195
rtibia 72.6012
rfoot 0.505359 -3.05026
rtoes 7.90939
lfemur 0.967007 9.48106 -7.65379
ltibia 75.2366
lfoot 3.03857 -4.85911
ltoes -1.71086
2861
root -16.0728 18.6143 10.1202 412.683 -80.6578 -111.311
lowerback 16.2581 -1.81118 -0.254092
upperback -4.29622 -1.89268 5.93326
thorax -13.8238 -0.575738 7.41234
lowerneck 17.7092 3.96548 -7.41505
upperneck 30.5844 0.58764 7.35556
head 6.65513 -1.27686 3.63776
rclavicle 4.13472e-014 -1.74931e-014
rhumerus 57.6589 -0.998144 -62.5418
rradius 82.976
rwrist 11.2942
rhand 1.6629 -22.3194
rfingers 7.12502
rthumb 27.1822 -410.381
lclavicle 4.13472e-014 -1.74931e-014
lhumerus 51.3974 9.13712 62.7682
lradius 79.2367
lwrist -10.6565
lhand 6.09605 -2.21067
lfingers 7.12502
lthumb 31.4148 25.1109
rfemur -6.07544 -2.47303 21.9619
rtibia 72.9888
rfoot -0.233524 -3.829
rtoes 18.3606
lfemur 0.784409 9.81542 -7.28467
ltibia 75.3232
lfoot 3.14011 -4.9815
ltoes -2.56117
2862
root -16.1086 18.6309 10.1194 407.346 -81.1085 -106.055
lowerback 16.0808 -1.87624 -0.942715
upperback -4.35522 -2.15834 5.55917
thorax -13.737 -0.656631 7.4378
lowerneck 18.3123 4.00199 -7.06567
upperneck 30.2624 0.675613 7.21395
head 6.46024 -1.21456 3.51971
rclavicle 2.34566e-014 -1.64991e-014
rhumerus 56.909 -1.43448 -62.5314
rradius 83.5094
rwrist 11.0058
rhand 1.79427 -22.1555
rfingers 7.12502
rthumb 27.3078 -410.198
lclavicle 2.34566e-014 -1.64991e-014
lhumerus 51.3895 8.90843 62.5307
lradius 79.1537
lwrist -10.5685
lhand 5.86329 -2.2534
lfingers 7.12502
lthumb 31.193 25.1111
rfemur -6.14367 -2.60919 21.0605
rtibia 73.3404
rfoot -0.0798594 -3.79817
rtoes 14.9
lfemur 0.623917 9.61023 -8.32514
ltibia 75.4246
lfoot 3.01547 -4.78935
ltoes -3.07168
2863
root -16.1406 18.6438 10.1299 406.324 -81.895 -105.202
lowerback 16.0155 -1.70092 -1.45736
upperback -4.39843 -2.05108 5.25262
thorax -13.7537 -0.57139 7.34958
lowerneck 19.4275 3.94757 -6.81439
upperneck 29.3909 0.632821 7.00139
head 6.02184 -1.22862 3.38722
rclavicle -4.25399e-014 3.49861e-014
rhumerus 57.3301 -1.06143 -62.7142
rradius 82.9657
rwrist 11.3115
rhand 1.70741 -22.5722
rfingers 7.12502
rthumb 27.2247 -410.628
lclavicle -4.25399e-014 3.49861e-014
lhumerus 51.0158 8.87711 62.1156
lradius 79.3282
lwrist -10.1733
lhand 5.54595 -1.63408
lfingers 7.12502
lthumb 30.8906 25.7882
rfemur -6.15431 -2.37138 20.2157
rtibia 73.4231
rfoot 0.473622 -3.62488
rtoes 10.1602
lfemur 0.868517 10.1252 -9.08211
ltibia 75.5892
lfoot 2.68158 -4.58798
ltoes -2.3125
2864
root -16.169 18.6592 10.1214 407.911 -81.2846 -107.012
lowerback 16.0029 -1.81697 -1.0135
upperback -4.31061 -2.10308 5.45702
thorax -13.6447 -0.633464 7.33531
lowerneck 20.1364 3.74956 -6.30923
upperneck 28.2404 0.666151 6.12248
head 5.5589 -1.167 2.98912
rclavicle 2.18663e-014 -3.79679e-014
rhumerus 57.704 -0.915435 -62.7551
rradius 82.758
rwrist 11.4791
rhand 1.65384 -22.9667
rfingers 7.12502
rthumb 27.1735 -411.03
lclavicle 2.18663e-014 -3.79679e-014
lhumerus 51.3691 8.803 62.2199
lradius 78.9227
lwrist -10.2698
lhand 5.45232 -1.37664
lfingers 7.12502
lthumb 30.8013 26.0625
rfemur -6.04783 -2.90078 20.8629
rtibia 73.664
rfoot 0.800548 -3.62839
rtoes 4.97044
lfemur 0.814886 10.0417 -8.15015
ltibia 75.8369
lfoot 2.85469 -4.66959
ltoes 1.15089
